<?xml version="1.0" encoding="UTF-8" standalone="no"?>
<svg width="138px" height="55px" viewBox="0 0 138 55" version="1.1" xmlns="http://www.w3.org/2000/svg" xmlns:xlink="http://www.w3.org/1999/xlink" xmlns:sketch="http://www.bohemiancoding.com/sketch/ns">
    <!-- Generator: Sketch 3.3 (11970) - http://www.bohemiancoding.com/sketch -->
    <title>ARM Developer Logo Concept</title>
    <desc>Created with Sketch.</desc>
    <defs></defs>
    <g id="Page-1" stroke="none" stroke-width="1" fill="none" fill-rule="evenodd" sketch:type="MSPage">
        <g id="ARM-Developer-Logo-Concept" sketch:type="MSLayerGroup">
            <g id="Group" fill="#0084A9" sketch:type="MSShapeGroup">
                <path d="M20.807,0.832 L33.837,30.169 L25.979,30.169 L23.562,24.373 L10.424,24.373 L8.234,30.169 L0.489,30.169 L12.339,0.832 L20.807,0.832 L20.807,0.832 Z M21.425,19.249 L16.67,7.846 L12.36,19.249 L21.425,19.249 L21.425,19.249 Z" id="Shape"></path>
                <path d="M37.218,0.832 L50.322,0.832 C53.164,0.832 55.474,1.654 57.252,3.298 C59.03,4.942 59.919,6.932 59.919,9.269 C59.919,12.501 58.239,14.894 54.879,16.446 C56.352,17.116 57.751,18.921 59.078,21.859 C60.405,24.797 61.686,27.567 62.922,30.17 L54.902,30.17 C54.423,29.204 53.589,27.363 52.4,24.647 C51.211,21.931 50.192,20.188 49.345,19.418 C48.498,18.648 47.592,18.263 46.626,18.263 L44.526,18.263 L44.526,30.17 L37.218,30.17 L37.218,0.832 L37.218,0.832 Z M44.526,6.208 L44.526,12.886 L48.39,12.886 C49.622,12.886 50.598,12.595 51.32,12.014 C52.041,11.433 52.402,10.604 52.402,9.525 C52.402,7.313 51.009,6.207 48.223,6.207 L44.526,6.207 L44.526,6.208 Z" id="Shape"></path>
                <path d="M82.105,11.709 L91.534,0.831 L97.887,0.831 L97.887,30.168 L90.579,30.168 L90.579,11.856 L82.654,21.054 L81.556,21.054 L73.632,11.856 L73.632,30.168 L66.324,30.168 L66.324,0.832 L72.669,0.832 L82.105,11.709 L82.105,11.709 Z" id="Shape"></path>
            </g>
            <g id="Group" transform="translate(0.000000, 39.000000)" fill="#0084A9" sketch:type="MSShapeGroup">
                <path d="M0.214,11.62 L0.214,0.762 L3.88,0.762 C5.359,0.762 6.529,0.984 7.39,1.428 C8.251,1.872 8.936,2.524 9.445,3.386 C9.954,4.247 10.208,5.187 10.208,6.203 C10.208,6.93 10.068,7.625 9.788,8.289 C9.508,8.953 9.108,9.537 8.589,10.04 C8.06,10.559 7.445,10.951 6.744,11.215 C6.334,11.376 5.958,11.484 5.616,11.538 C5.273,11.592 4.619,11.62 3.654,11.62 L0.214,11.62 L0.214,11.62 Z M3.716,2.147 L1.771,2.147 L1.771,10.234 L3.764,10.234 C4.542,10.234 5.147,10.181 5.577,10.074 C6.007,9.967 6.367,9.833 6.655,9.669 C6.943,9.505 7.206,9.305 7.445,9.066 C8.213,8.288 8.597,7.304 8.597,6.116 C8.597,4.949 8.202,3.996 7.414,3.26 C7.123,2.985 6.79,2.759 6.414,2.583 C6.038,2.407 5.681,2.29 5.344,2.233 C5.006,2.176 4.463,2.147 3.716,2.147 L3.716,2.147 Z" id="Shape"></path>
                <path d="M18.062,8.179 L13.026,8.179 C13.062,8.864 13.292,9.409 13.715,9.814 C14.138,10.219 14.684,10.421 15.353,10.421 C16.287,10.421 17.148,10.13 17.937,9.549 L17.937,10.934 C17.501,11.225 17.069,11.433 16.641,11.557 C16.213,11.682 15.711,11.744 15.135,11.744 C14.346,11.744 13.708,11.58 13.22,11.254 C12.732,10.927 12.342,10.487 12.049,9.935 C11.756,9.382 11.609,8.743 11.609,8.017 C11.609,6.927 11.918,6.041 12.535,5.359 C13.152,4.677 13.954,4.336 14.94,4.336 C15.889,4.336 16.647,4.668 17.212,5.332 C17.777,5.997 18.061,6.886 18.061,8.002 L18.061,8.179 L18.062,8.179 Z M13.057,7.331 L16.661,7.331 C16.625,6.766 16.456,6.33 16.155,6.023 C15.854,5.717 15.449,5.564 14.941,5.564 C14.432,5.564 14.016,5.717 13.691,6.023 C13.366,6.329 13.155,6.766 13.057,7.331 L13.057,7.331 Z" id="Shape"></path>
                <path d="M23.74,4.475 L25.276,4.475 L22.113,11.76 L21.634,11.76 L18.396,4.475 L19.946,4.475 L21.879,8.88 L23.74,4.475 L23.74,4.475 Z" id="Shape"></path>
                <path d="M32.119,8.179 L27.083,8.179 C27.119,8.864 27.349,9.409 27.772,9.814 C28.195,10.219 28.741,10.421 29.41,10.421 C30.344,10.421 31.205,10.13 31.994,9.549 L31.994,10.934 C31.558,11.225 31.126,11.433 30.698,11.557 C30.27,11.682 29.768,11.744 29.192,11.744 C28.403,11.744 27.765,11.58 27.277,11.254 C26.789,10.927 26.399,10.487 26.106,9.935 C25.813,9.382 25.666,8.743 25.666,8.017 C25.666,6.927 25.975,6.041 26.592,5.359 C27.209,4.677 28.011,4.336 28.997,4.336 C29.946,4.336 30.704,4.668 31.269,5.332 C31.834,5.997 32.118,6.886 32.118,8.002 L32.118,8.179 L32.119,8.179 Z M27.114,7.331 L30.718,7.331 C30.682,6.766 30.513,6.33 30.212,6.023 C29.911,5.717 29.506,5.564 28.998,5.564 C28.489,5.564 28.073,5.717 27.748,6.023 C27.423,6.329 27.212,6.766 27.114,7.331 L27.114,7.331 Z" id="Shape"></path>
                <path d="M33.683,0.762 L35.1,0.762 L35.1,11.636 L33.683,11.636 L33.683,0.762 L33.683,0.762 Z" id="Shape"></path>
                <path d="M40.571,4.459 C41.661,4.459 42.566,4.811 43.287,5.514 C44.008,6.217 44.369,7.1 44.369,8.164 C44.369,9.197 44.003,10.055 43.272,10.737 C42.54,11.419 41.619,11.76 40.509,11.76 C39.435,11.76 38.537,11.414 37.816,10.721 C37.095,10.028 36.734,9.163 36.734,8.125 C36.734,7.077 37.099,6.204 37.828,5.506 C38.557,4.808 39.471,4.459 40.571,4.459 L40.571,4.459 Z M40.494,5.735 C39.814,5.735 39.256,5.958 38.821,6.404 C38.385,6.85 38.167,7.419 38.167,8.109 C38.167,8.794 38.39,9.353 38.836,9.786 C39.282,10.22 39.856,10.436 40.556,10.436 C41.251,10.436 41.821,10.217 42.264,9.778 C42.708,9.34 42.93,8.778 42.93,8.093 C42.93,7.413 42.699,6.85 42.237,6.404 C41.775,5.958 41.194,5.735 40.494,5.735 L40.494,5.735 Z" id="Shape"></path>
                <path d="M45.848,15.286 L45.848,4.475 L48.328,4.475 C49.598,4.475 50.586,4.791 51.294,5.424 C52.002,6.057 52.355,6.942 52.355,8.078 C52.355,9.152 52.022,10.035 51.356,10.724 C50.69,11.413 49.842,11.759 48.811,11.759 C48.355,11.759 47.85,11.658 47.295,11.455 L47.295,15.285 L45.848,15.285 L45.848,15.286 Z M48.298,5.798 L47.296,5.798 L47.296,10.203 C47.731,10.426 48.187,10.537 48.663,10.537 C49.326,10.537 49.868,10.307 50.29,9.845 C50.712,9.383 50.923,8.789 50.923,8.062 C50.923,7.595 50.823,7.183 50.624,6.825 C50.425,6.467 50.153,6.206 49.809,6.043 C49.464,5.879 48.96,5.798 48.298,5.798 L48.298,5.798 Z" id="Shape"></path>
                <path d="M60.015,8.179 L54.979,8.179 C55.015,8.864 55.245,9.409 55.668,9.814 C56.091,10.219 56.637,10.421 57.306,10.421 C58.24,10.421 59.101,10.13 59.89,9.549 L59.89,10.934 C59.454,11.225 59.022,11.433 58.594,11.557 C58.166,11.682 57.664,11.744 57.088,11.744 C56.299,11.744 55.661,11.58 55.173,11.254 C54.685,10.927 54.295,10.487 54.002,9.935 C53.709,9.382 53.562,8.743 53.562,8.017 C53.562,6.927 53.871,6.041 54.488,5.359 C55.105,4.677 55.907,4.336 56.893,4.336 C57.842,4.336 58.6,4.668 59.165,5.332 C59.73,5.997 60.014,6.886 60.014,8.002 L60.014,8.179 L60.015,8.179 Z M55.01,7.331 L58.614,7.331 C58.578,6.766 58.409,6.33 58.108,6.023 C57.807,5.717 57.402,5.564 56.894,5.564 C56.385,5.564 55.969,5.717 55.644,6.023 C55.319,6.329 55.108,6.766 55.01,7.331 L55.01,7.331 Z" id="Shape"></path>
                <path d="M63.065,4.475 L63.065,6.117 L63.143,5.992 C63.828,4.887 64.513,4.334 65.198,4.334 C65.733,4.334 66.29,4.604 66.872,5.144 L66.124,6.389 C65.631,5.922 65.175,5.688 64.754,5.688 C64.297,5.688 63.901,5.906 63.567,6.342 C63.232,6.778 63.065,7.295 63.065,7.891 L63.065,11.635 L61.641,11.635 L61.641,4.474 L63.065,4.474 L63.065,4.475 Z" id="Shape"></path>
                <path d="M72.53,11.635 L72.53,0.762 L75.255,0.762 C76.355,0.762 77.228,1.034 77.874,1.579 C78.52,2.124 78.843,2.861 78.843,3.789 C78.843,4.422 78.685,4.97 78.368,5.431 C78.052,5.893 77.597,6.238 77.006,6.466 C77.354,6.695 77.694,7.006 78.026,7.4 C78.358,7.795 78.825,8.482 79.427,9.463 C79.805,10.08 80.109,10.545 80.338,10.856 L80.914,11.634 L79.061,11.634 L78.587,10.918 C78.571,10.892 78.54,10.848 78.493,10.785 L78.19,10.357 L77.708,9.563 L77.187,8.714 C76.866,8.268 76.571,7.912 76.304,7.648 C76.037,7.384 75.795,7.193 75.579,7.077 C75.363,6.961 75.001,6.902 74.492,6.902 L74.087,6.902 L74.087,11.634 L72.53,11.634 L72.53,11.635 Z M74.554,2.085 L74.087,2.085 L74.087,5.518 L74.678,5.518 C75.467,5.518 76.008,5.451 76.301,5.315 C76.594,5.18 76.822,4.977 76.986,4.704 C77.15,4.432 77.232,4.121 77.232,3.774 C77.232,3.432 77.141,3.122 76.96,2.844 C76.778,2.567 76.522,2.37 76.193,2.257 C75.863,2.142 75.316,2.085 74.554,2.085 L74.554,2.085 Z" id="Shape"></path>
                <path d="M88.02,8.179 L82.984,8.179 C83.02,8.864 83.25,9.409 83.673,9.814 C84.096,10.219 84.642,10.421 85.311,10.421 C86.245,10.421 87.106,10.13 87.895,9.549 L87.895,10.934 C87.459,11.225 87.027,11.433 86.599,11.557 C86.171,11.682 85.669,11.744 85.093,11.744 C84.304,11.744 83.666,11.58 83.178,11.254 C82.69,10.927 82.3,10.487 82.007,9.935 C81.714,9.382 81.567,8.743 81.567,8.017 C81.567,6.927 81.876,6.041 82.493,5.359 C83.11,4.677 83.912,4.336 84.898,4.336 C85.847,4.336 86.605,4.668 87.17,5.332 C87.735,5.997 88.019,6.886 88.019,8.002 L88.019,8.179 L88.02,8.179 Z M83.015,7.331 L86.619,7.331 C86.583,6.766 86.414,6.33 86.113,6.023 C85.812,5.717 85.407,5.564 84.899,5.564 C84.39,5.564 83.974,5.717 83.649,6.023 C83.324,6.329 83.113,6.766 83.015,7.331 L83.015,7.331 Z" id="Shape"></path>
                <path d="M89.203,11.122 L89.203,9.597 C89.602,9.877 90.011,10.104 90.429,10.278 C90.846,10.452 91.198,10.539 91.484,10.539 C91.779,10.539 92.034,10.467 92.247,10.321 C92.459,10.176 92.566,10.002 92.566,9.8 C92.566,9.592 92.497,9.42 92.36,9.282 C92.222,9.145 91.925,8.946 91.469,8.687 C90.555,8.178 89.958,7.744 89.675,7.383 C89.392,7.023 89.251,6.63 89.251,6.204 C89.251,5.654 89.465,5.205 89.893,4.858 C90.321,4.51 90.872,4.337 91.547,4.337 C92.248,4.337 92.966,4.534 93.703,4.928 L93.703,6.329 C92.862,5.82 92.175,5.566 91.64,5.566 C91.365,5.566 91.143,5.625 90.974,5.741 C90.806,5.858 90.721,6.012 90.721,6.205 C90.721,6.372 90.798,6.53 90.95,6.681 C91.103,6.831 91.371,7.013 91.755,7.225 L92.261,7.513 C93.455,8.187 94.052,8.934 94.052,9.754 C94.052,10.34 93.823,10.821 93.363,11.197 C92.904,11.573 92.314,11.761 91.592,11.761 C91.166,11.761 90.787,11.716 90.455,11.625 C90.123,11.534 89.706,11.366 89.203,11.122 L89.203,11.122 Z" id="Shape"></path>
                <path d="M99.111,4.459 C100.201,4.459 101.106,4.811 101.827,5.514 C102.548,6.217 102.909,7.1 102.909,8.164 C102.909,9.197 102.543,10.055 101.812,10.737 C101.08,11.419 100.159,11.76 99.049,11.76 C97.975,11.76 97.077,11.414 96.356,10.721 C95.635,10.028 95.274,9.163 95.274,8.125 C95.274,7.077 95.639,6.204 96.368,5.506 C97.097,4.808 98.011,4.459 99.111,4.459 L99.111,4.459 Z M99.033,5.735 C98.353,5.735 97.795,5.958 97.36,6.404 C96.924,6.85 96.706,7.419 96.706,8.109 C96.706,8.794 96.929,9.353 97.375,9.786 C97.821,10.22 98.395,10.436 99.095,10.436 C99.79,10.436 100.36,10.217 100.803,9.778 C101.247,9.34 101.469,8.778 101.469,8.093 C101.469,7.413 101.238,6.85 100.776,6.404 C100.315,5.958 99.733,5.735 99.033,5.735 L99.033,5.735 Z" id="Shape"></path>
                <path d="M109.043,11.635 L109.043,10.717 C108.742,11.046 108.398,11.302 108.011,11.486 C107.625,11.669 107.24,11.76 106.855,11.76 C106.404,11.76 105.987,11.647 105.606,11.422 C105.225,11.196 104.937,10.89 104.742,10.504 C104.548,10.117 104.45,9.475 104.45,8.577 L104.45,4.475 L105.867,4.475 L105.867,8.556 C105.867,9.307 105.974,9.832 106.19,10.13 C106.406,10.428 106.783,10.577 107.323,10.577 C107.997,10.577 108.571,10.247 109.043,9.589 L109.043,4.475 L110.46,4.475 L110.46,11.636 L109.043,11.636 L109.043,11.635 Z" id="Shape"></path>
                <path d="M113.97,4.475 L113.97,6.117 L114.048,5.992 C114.733,4.887 115.418,4.334 116.103,4.334 C116.638,4.334 117.195,4.604 117.777,5.144 L117.029,6.389 C116.536,5.922 116.08,5.688 115.659,5.688 C115.202,5.688 114.806,5.906 114.472,6.342 C114.137,6.778 113.97,7.295 113.97,7.891 L113.97,11.635 L112.546,11.635 L112.546,4.474 L113.97,4.474 L113.97,4.475 Z" id="Shape"></path>
                <path d="M123.738,9.962 L123.738,11.363 C123.027,11.628 122.332,11.76 121.652,11.76 C120.531,11.76 119.637,11.428 118.971,10.764 C118.304,10.099 117.971,9.21 117.971,8.094 C117.971,6.968 118.295,6.06 118.944,5.37 C119.592,4.68 120.446,4.335 121.505,4.335 C121.874,4.335 122.204,4.37 122.498,4.44 C122.791,4.51 123.153,4.641 123.584,4.833 L123.584,6.343 C122.868,5.886 122.204,5.658 121.591,5.658 C120.953,5.658 120.428,5.882 120.019,6.331 C119.609,6.78 119.404,7.352 119.404,8.047 C119.404,8.779 119.626,9.36 120.07,9.791 C120.514,10.222 121.112,10.437 121.864,10.437 C122.407,10.437 123.032,10.278 123.738,9.962 L123.738,9.962 Z" id="Shape"></path>
                <path d="M131.451,8.179 L126.415,8.179 C126.451,8.864 126.681,9.409 127.104,9.814 C127.527,10.219 128.073,10.421 128.742,10.421 C129.676,10.421 130.537,10.13 131.326,9.549 L131.326,10.934 C130.89,11.225 130.458,11.433 130.03,11.557 C129.602,11.682 129.1,11.744 128.524,11.744 C127.735,11.744 127.097,11.58 126.609,11.254 C126.121,10.927 125.731,10.487 125.438,9.935 C125.145,9.382 124.998,8.743 124.998,8.017 C124.998,6.927 125.307,6.041 125.924,5.359 C126.541,4.677 127.343,4.336 128.329,4.336 C129.278,4.336 130.036,4.668 130.601,5.332 C131.166,5.997 131.45,6.886 131.45,8.002 L131.45,8.179 L131.451,8.179 Z M126.446,7.331 L130.05,7.331 C130.014,6.766 129.845,6.33 129.544,6.023 C129.243,5.717 128.838,5.564 128.33,5.564 C127.821,5.564 127.405,5.717 127.08,6.023 C126.755,6.329 126.545,6.766 126.446,7.331 L126.446,7.331 Z" id="Shape"></path>
                <path d="M132.634,11.122 L132.634,9.597 C133.033,9.877 133.442,10.104 133.86,10.278 C134.277,10.452 134.629,10.539 134.915,10.539 C135.21,10.539 135.465,10.467 135.678,10.321 C135.89,10.176 135.997,10.002 135.997,9.8 C135.997,9.592 135.928,9.42 135.791,9.282 C135.653,9.145 135.356,8.946 134.9,8.687 C133.986,8.178 133.389,7.744 133.106,7.383 C132.823,7.023 132.682,6.63 132.682,6.204 C132.682,5.654 132.896,5.205 133.324,4.858 C133.752,4.51 134.303,4.337 134.978,4.337 C135.679,4.337 136.397,4.534 137.134,4.928 L137.134,6.329 C136.293,5.82 135.606,5.566 135.071,5.566 C134.796,5.566 134.574,5.625 134.405,5.741 C134.237,5.858 134.152,6.012 134.152,6.205 C134.152,6.372 134.229,6.53 134.381,6.681 C134.534,6.831 134.802,7.013 135.186,7.225 L135.692,7.513 C136.886,8.187 137.483,8.934 137.483,9.754 C137.483,10.34 137.254,10.821 136.794,11.197 C136.335,11.573 135.745,11.761 135.023,11.761 C134.597,11.761 134.218,11.716 133.886,11.625 C133.554,11.534 133.138,11.366 132.634,11.122 L132.634,11.122 Z" id="Shape"></path>
            </g>
            <rect id="Rectangle-path" fill="#00C3DC" sketch:type="MSShapeGroup" x="107.737" y="0.365" width="30" height="30"></rect>
            <path d="M121.673,7.365 L113.37,23.365 L109.378,23.365 L117.749,7.365 L121.673,7.365 Z" id="Shape" fill="#FFFFFF" sketch:type="MSShapeGroup"></path>
            <g id="Group" transform="translate(120.000000, 7.000000)" fill="#FFFFFF" sketch:type="MSShapeGroup">
                <path d="M7.737,17.247 L7.737,1.771 L9.737,0.441 L9.737,15.913 L7.737,17.247 Z" id="Shape"></path>
                <path d="M0.589,12.006 L13.991,4.268 L16.343,5.683 L2.945,13.418 L0.589,12.006 Z" id="Shape"></path>
                <path d="M15.143,14.085 L1.741,6.348 L1.79,3.603 L15.188,11.339 L15.143,14.085 Z" id="Shape"></path>
            </g>
        </g>
    </g>
</svg>